HIERARCHY
ROOT hip
{
	OFFSET 0.000000 0.000000 0.000000 
	CHANNELS 6 Xposition Yposition Zposition Zrotation Xrotation Yrotation
	JOINT abdomen
	{
		OFFSET 0.000000 3.402643 0.000000 
		CHANNELS 3 Zrotation Xrotation Yrotation
		JOINT chest
		{
			OFFSET 0.000000 8.438565 -0.680529 
			CHANNELS 3 Zrotation Xrotation Yrotation
			JOINT neck
			{
				OFFSET 0.000000 10.207942 -0.272212 
				CHANNELS 3 Zrotation Xrotation Yrotation
				JOINT head
				{
					OFFSET 0.000000 3.130431 0.000000 
					CHANNELS 3 Zrotation Xrotation Yrotation
					End Site
					{
						OFFSET 0.000000 3.130435 0.000000 
					}
				}
			}
			JOINT lCollar
			{
				OFFSET 3.470700 6.669187 -0.816635 
				CHANNELS 3 Zrotation Xrotation Yrotation
				JOINT lShldr
				{
					OFFSET 3.198488 0.000000 0.000000 
					CHANNELS 3 Zrotation Xrotation Yrotation
					JOINT lForeArm
					{
						OFFSET 10.139888 0.000000 0.000000 
						CHANNELS 3 Zrotation Xrotation Yrotation
						JOINT lHand
						{
							OFFSET 8.370511 0.000000 0.000000 
							CHANNELS 3 Zrotation Xrotation Yrotation
							End Site
							{
								OFFSET 4.083176 0.000000 0.000000 
							}
						}
					}
				}
			}
			JOINT rCollar
			{
				OFFSET -3.470700 6.669187 -0.816635 
				CHANNELS 3 Zrotation Xrotation Yrotation
				JOINT rShldr
				{
					OFFSET -3.198488 0.000000 0.000000 
					CHANNELS 3 Zrotation Xrotation Yrotation
					JOINT rForeArm
					{
						OFFSET -10.139888 0.000000 0.000000 
						CHANNELS 3 Zrotation Xrotation Yrotation
						JOINT rHand
						{
							OFFSET -8.370511 0.000000 0.000000 
							CHANNELS 3 Zrotation Xrotation Yrotation
							End Site
							{
								OFFSET -4.083176 0.000000 0.000000 
							}
						}
					}
				}
			}
		}
	}
	JOINT lThigh
	{
		OFFSET 5.308129 -1.633274 1.361059 
		CHANNELS 3 Zrotation Xrotation Yrotation
		JOINT lShin
		{
			OFFSET -2.041588 -20.007561 0.000000 
			CHANNELS 3 Zrotation Xrotation Yrotation
			JOINT lFoot
			{
				OFFSET 0.000000 -19.190928 -1.224953 
				CHANNELS 3 Zrotation Xrotation Yrotation
				End Site
				{
					OFFSET 0.000000 -2.449906 4.627600 
				}
			}
		}
	}
	JOINT rThigh
	{
		OFFSET -5.308129 -1.633274 1.361059 
		CHANNELS 3 Zrotation Xrotation Yrotation
		JOINT rShin
		{
			OFFSET 2.041588 -20.007561 0.000000 
			CHANNELS 3 Zrotation Xrotation Yrotation
			JOINT rFoot
			{
				OFFSET 0.000000 -19.190928 -1.224953 
				CHANNELS 3 Zrotation Xrotation Yrotation
				End Site
				{
					OFFSET 0.000000 -2.449906 4.627600 
				}
			}
		}
	}
}
MOTION
Frames: 11
Frame Time: 0.033333
0.000000 48.013634 0.291666 0.628024 5.624650 1.959929 6.795719 23.484808 7.526336 -0.693780 19.422516 9.576419 -0.000000 7.998040 -3.007812 1.393764 13.111488 -9.408029 18.144711 11.878786 25.505169 -101.615143 52.463455 32.289764 15.334654 -5.756797 -83.010170 -0.033030 0.100772 -3.198451 -3.013545 -2.888568 8.989432 66.567772 -8.901274 27.348526 35.831779 -3.275566 32.995968 -0.023894 0.127779 3.175987 -0.487958 -50.192677 -8.487005 -1.145166 87.558075 -5.425896 -0.321736 2.831576 -10.069186 1.330077 -7.632849 6.390465 0.000175 -0.000376 0.009757 -0.394321 55.630589 0.859227 
0.000000 48.013634 0.291666 0.628024 5.624650 1.959929 6.795719 23.484808 7.526336 -0.693780 19.422516 9.576419 -0.000000 7.998040 -3.007812 1.393764 13.111488 -9.408029 18.144711 11.878786 25.505169 -100.872940 52.463440 32.289757 15.438911 -5.466660 -81.933502 -0.033030 0.100772 -3.198451 -3.013545 -2.888568 8.989432 64.348907 -8.897337 27.348196 35.867561 -3.849139 32.214672 -0.023894 0.127779 3.175987 -0.497841 -51.260986 -8.496222 25.060947 89.169136 -31.551672 -0.731715 2.089210 -10.233477 1.330077 -7.632849 6.390465 0.000175 -0.000376 0.009757 -0.543072 56.069077 0.988256 
0.000000 48.013634 0.291666 0.628024 5.624650 1.959929 6.795719 23.484808 7.526336 -0.693780 19.422516 9.576419 -0.000000 7.998040 -3.007812 1.393764 13.111488 -9.408029 18.144711 11.878786 25.505169 -100.013573 52.463463 32.289761 15.556102 -5.130212 -80.716660 -0.033030 0.100772 -3.198451 -3.013545 -2.888568 8.989432 61.814407 -8.906013 27.348911 35.886761 -4.504432 31.322805 -0.023894 0.127779 3.175987 -0.512927 -52.476536 -8.515151 151.485001 89.099297 -157.950058 -0.639410 1.945588 -10.176723 1.330077 -7.632849 6.390465 0.000175 -0.000376 0.009757 -0.512484 56.509178 0.929093 
0.000000 48.013634 0.291666 0.628024 5.624650 1.959929 6.795719 23.484808 7.526336 -0.693780 19.422516 9.576419 -0.000000 7.998040 -3.007812 1.393764 13.111488 -9.408029 18.144711 11.878786 25.505169 -99.622940 52.463463 32.289764 15.608894 -4.951315 -80.097145 -0.033030 0.100772 -3.198451 -3.013545 -2.888568 8.989432 60.571674 -8.901273 27.348515 35.891834 -4.865278 30.837503 -0.023894 0.127779 3.175987 -0.519097 -53.182533 -8.523654 174.158356 89.135887 179.289871 -0.380526 2.500469 -10.122006 1.330077 -7.632849 6.390465 -0.000217 0.391826 -0.024169 -0.429969 57.075390 0.931642 
0.000000 48.013634 0.291666 0.628024 5.624650 1.959929 6.795719 23.484808 7.526336 -0.693780 19.422516 9.576419 -0.000000 7.998040 -3.007812 1.393764 13.111488 -9.408029 18.144711 11.878786 25.505169 -100.069382 52.460773 32.287560 15.562264 -5.118219 -80.668159 -0.033030 0.100772 -3.198451 -3.013545 -2.888568 8.989432 61.792385 -8.901277 27.348524 35.877682 -4.644037 31.140682 -0.023894 0.127779 3.175987 -0.662523 -52.829350 -8.622786 164.468384 89.088066 -170.860687 -0.489861 2.097350 -10.205647 1.330077 -7.632849 6.390465 -0.019942 1.944448 0.006334 -0.738814 57.092304 1.213838 
0.000000 48.013634 0.291666 0.628024 5.624650 1.959929 6.795719 23.484808 7.526336 -0.693780 19.422516 9.576419 -0.000000 7.998040 -3.007812 1.393764 13.111488 -9.408029 18.144711 11.878786 25.505169 -100.948280 52.460766 32.287548 15.442217 -5.450198 -81.897934 -0.033030 0.100772 -3.198451 -3.013545 -2.888568 8.989432 64.348907 -8.897337 27.348196 35.851784 -4.015045 31.984608 -0.023894 0.127779 3.175987 -0.876468 -51.402283 -8.702154 2.952386 89.050850 -9.210701 -0.378876 2.718132 -10.139894 1.330077 -7.632849 6.390465 0.038342 3.747112 0.140724 -0.574798 56.929165 0.943817 
0.000000 48.013634 0.291666 0.628024 5.624650 1.959929 6.795719 23.484808 7.526336 -0.693780 19.422516 9.576419 -0.000000 7.998040 -3.007812 1.393764 13.111488 -9.408029 18.144711 11.878786 25.505169 -101.615143 52.463455 32.289764 15.334654 -5.756797 -83.010170 -0.033030 0.100772 -3.198451 -3.013545 -2.888568 8.989432 66.567772 -8.901274 27.348526 35.831779 -3.275566 32.995968 -0.023894 0.127779 3.175987 -0.487958 -50.192677 -8.487005 -1.145166 87.558075 -5.425896 -0.321736 2.831576 -10.069186 1.330077 -7.632849 6.390465 0.008820 4.781317 0.191299 -0.408422 56.871857 0.777344 
0.000000 48.013634 0.291666 0.628024 5.624650 1.959929 6.795719 23.484808 7.526336 -0.693780 19.422516 9.576419 -0.000000 7.998040 -3.007812 1.393764 13.111488 -9.408029 18.144711 11.878786 25.505169 -101.592827 52.460751 32.287560 15.294874 -5.866255 -83.413536 -0.033030 0.100772 -3.198451 -3.013545 -2.888568 8.989432 67.161423 -8.897338 27.348198 35.829193 -2.676911 33.814838 -0.023894 0.127779 3.175987 -0.471314 -48.653610 -8.464422 3.970090 86.328857 -10.461672 -0.602592 2.192620 -10.106146 1.330077 -7.632849 6.390465 -0.001053 4.635313 0.176559 -0.523440 56.753708 0.899056 
0.000000 48.013634 0.291666 0.628024 5.624650 1.959929 6.795719 23.484808 7.526336 -0.693780 19.422516 9.576419 -0.000000 7.998040 -3.007812 1.393764 13.111488 -9.408029 18.144711 11.878786 25.505169 -101.038956 52.463440 32.289761 15.311306 -5.812475 -83.200623 -0.033030 0.100772 -3.198451 -3.013545 -2.888568 8.989432 66.440811 -8.901273 27.348524 35.847893 -2.257548 34.385113 -0.023894 0.127779 3.175987 -0.460810 -47.320171 -8.446812 1.626287 84.480148 -8.153260 -0.507286 2.407978 -10.070333 1.330077 -7.632849 6.390465 0.048085 3.678692 0.137653 -0.536078 56.802639 0.892862 
0.000000 48.013634 0.291666 0.628024 5.624650 1.959929 6.795719 23.484808 7.526336 -0.693780 19.422516 9.576419 -0.000000 7.998040 -3.007812 1.393764 13.111488 -9.408029 18.144711 11.878786 25.505169 -100.293991 52.460766 32.287552 15.365660 -5.675110 -82.691055 -0.033030 0.100772 -3.198451 -3.013545 -2.888568 8.989432 65.091103 -8.897337 27.348192 35.878666 -2.038671 34.698460 -0.023894 0.127779 3.175987 -0.451751 -46.369415 -8.434928 0.413428 83.193199 -7.003010 -0.325407 2.505948 -10.055663 1.330077 -7.632849 6.390465 0.048488 2.185042 0.091166 -0.518057 56.958580 0.921317 
0.000000 48.013634 0.291666 0.628024 5.624650 1.959929 6.795719 23.484808 7.526336 -0.693780 19.422516 9.576419 -0.000000 7.998040 -3.007812 1.393764 13.111488 -9.408029 18.144711 11.878786 25.505169 -99.678749 52.460762 32.287556 15.420810 -5.525079 -82.155205 -0.033030 0.100772 -3.198451 -3.013545 -2.888568 8.989432 63.811813 -8.897336 27.348200 35.906601 -2.003197 34.746429 -0.023894 0.127779 3.175987 -0.505342 -45.935635 -8.438903 4.416035 83.134041 -10.797285 -0.658520 1.876260 -10.185751 1.330077 -7.632849 6.390465 0.009512 0.380838 0.004526 -0.564664 57.114712 0.943691 
